<?xml version="1.0" encoding="UTF-8"?>
<!DOCTYPE svg PUBLIC "-//W3C//DTD SVG 1.1//EN" "http://www.w3.org/Graphics/SVG/1.1/DTD/svg11.dtd">
<svg xmlns="http://www.w3.org/2000/svg" version="1.1" width="539px" height="696px" style="shape-rendering:geometricPrecision; text-rendering:geometricPrecision; image-rendering:optimizeQuality; fill-rule:evenodd; clip-rule:evenodd" xmlns:xlink="http://www.w3.org/1999/xlink">
<g><path style="opacity:0.992" fill="#04a8f9" d="M 219.5,-0.5 C 220.167,-0.5 220.833,-0.5 221.5,-0.5C 312.148,65.8087 402.815,132.142 493.5,198.5C 445.195,255.802 396.195,312.469 346.5,368.5C 354.596,357.894 362.929,347.394 371.5,337C 361,324.5 350.5,312 340,299.5C 339.209,298.255 338.709,296.922 338.5,295.5C 363.955,264.207 389.621,233.04 415.5,202C 349.964,134.631 284.63,67.1313 219.5,-0.5 Z"/></g>
<g><path style="opacity:1" fill="#3579a8" d="M 338.5,266.5 C 294.153,214.151 250.153,161.484 206.5,108.5C 194.588,93.0811 182.088,78.0811 169,63.5C 168.517,62.552 168.351,61.552 168.5,60.5C 180.105,44.5641 192.438,29.2307 205.5,14.5C 207.274,13.119 208.774,13.4523 210,15.5C 252.88,99.2624 295.713,182.929 338.5,266.5 Z"/></g>
<g><path style="opacity:0.995" fill="#075993" d="M 338.5,266.5 C 295.713,182.929 252.88,99.2624 210,15.5C 208.774,13.4523 207.274,13.119 205.5,14.5C 205.511,12.3141 206.511,11.4808 208.5,12C 269,75.1667 329.5,138.333 390,201.5C 390.667,202.167 390.667,202.833 390,203.5C 372.969,224.689 355.802,245.689 338.5,266.5 Z"/></g>
<g><path style="opacity:0.993" fill="#075993" d="M 168.5,60.5 C 168.351,61.552 168.517,62.552 169,63.5C 182.088,78.0811 194.588,93.0811 206.5,108.5C 177.806,140.872 149.806,173.872 122.5,207.5C 187.486,273.653 252.653,339.653 318,405.5C 318.667,406.167 318.667,406.833 318,407.5C 226.746,343.456 135.579,279.29 44.5,215C 85.3176,163.023 126.651,111.523 168.5,60.5 Z"/></g>
<g><path style="opacity:0.996" fill="#04a8fa" d="M 209.5,141.5 C 250.167,222.833 290.833,304.167 331.5,385.5C 270.398,327.233 209.731,268.4 149.5,209C 168.833,186.333 188.167,163.667 207.5,141C 208.437,140.308 209.103,140.475 209.5,141.5 Z"/></g>
<g><path style="opacity:1" fill="#33b9fa" d="M 209.5,141.5 C 252.5,192.833 295.5,244.167 338.5,295.5C 338.709,296.922 339.209,298.255 340,299.5C 350.5,312 361,324.5 371.5,337C 362.929,347.394 354.596,357.894 346.5,368.5C 342.186,374.811 337.186,380.478 331.5,385.5C 290.833,304.167 250.167,222.833 209.5,141.5 Z"/></g>
<g><path style="opacity:0.971" fill="#065993" d="M -0.5,450.5 C -0.5,450.167 -0.5,449.833 -0.5,449.5C 88.4971,446.139 177.497,442.806 266.5,439.5C 353.515,442.614 440.515,446.114 527.5,450C 351.5,450.5 175.5,450.667 -0.5,450.5 Z"/></g>
<g><path style="opacity:0.989" fill="#075993" d="M 10.5,481.5 C 22.5046,481.333 34.5046,481.5 46.5,482C 62.2123,502.59 78.0457,523.09 94,543.5C 97.3333,549.5 100.667,555.5 104,561.5C 103.618,534.849 103.451,508.182 103.5,481.5C 115.167,481.5 126.833,481.5 138.5,481.5C 138.5,523.167 138.5,564.833 138.5,606.5C 126.829,606.667 115.162,606.5 103.5,606C 86.3036,584.437 69.4703,562.604 53,540.5C 50.5879,535.341 47.9212,530.341 45,525.5C 45.4555,552.465 45.6221,579.465 45.5,606.5C 33.8333,606.5 22.1667,606.5 10.5,606.5C 10.5,564.833 10.5,523.167 10.5,481.5 Z"/></g>
<g><path style="opacity:0.987" fill="#065993" d="M 166.5,481.5 C 178.833,481.5 191.167,481.5 203.5,481.5C 203.5,523.167 203.5,564.833 203.5,606.5C 191.167,606.5 178.833,606.5 166.5,606.5C 166.5,564.833 166.5,523.167 166.5,481.5 Z"/></g>
<g><path style="opacity:0.99" fill="#075993" d="M 242.5,481.5 C 254.747,481.178 266.914,481.512 279,482.5C 287.073,508.052 294.74,533.719 302,559.5C 309.2,533.701 316.867,508.034 325,482.5C 337.086,481.512 349.253,481.178 361.5,481.5C 368.274,523.147 374.941,564.814 381.5,606.5C 370.147,606.832 358.814,606.499 347.5,605.5C 343.582,580.577 340.082,555.577 337,530.5C 329.977,555.258 322.644,579.925 315,604.5C 310.923,605.798 306.589,606.464 302,606.5C 297.411,606.464 293.077,605.798 289,604.5C 281.356,579.925 274.023,555.258 267,530.5C 263.639,555.861 260.139,581.194 256.5,606.5C 245.167,606.5 233.833,606.5 222.5,606.5C 229.059,564.814 235.726,523.147 242.5,481.5 Z"/></g>
<g><path style="opacity:0.995" fill="#075993" d="M 399.5,481.5 C 411.505,481.333 423.505,481.5 435.5,482C 451.333,502.5 467.167,523 483,543.5C 487.174,549.846 490.841,556.512 494,563.5C 492.688,536.228 492.188,508.894 492.5,481.5C 504.5,481.5 516.5,481.5 528.5,481.5C 528.5,523.167 528.5,564.833 528.5,606.5C 516.495,606.667 504.495,606.5 492.5,606C 476.667,585.5 460.833,565 445,544.5C 440.826,538.154 437.159,531.488 434,524.5C 434.456,551.799 434.623,579.132 434.5,606.5C 422.833,606.5 411.167,606.5 399.5,606.5C 399.5,564.833 399.5,523.167 399.5,481.5 Z"/></g>
<g><path style="opacity:0.973" fill="#065993" d="M 538.5,624.5 C 538.5,624.833 538.5,625.167 538.5,625.5C 451.676,629.236 364.843,632.902 278,636.5C 189.141,633.066 100.307,629.232 11.5,625C 187.166,624.5 362.833,624.333 538.5,624.5 Z"/></g>
<g><path style="opacity:0.896" fill="#075790" d="M 184.5,667.5 C 187.909,667.249 191.242,667.583 194.5,668.5C 195.833,670.167 195.833,671.833 194.5,673.5C 188.082,669.879 183.749,671.545 181.5,678.5C 183.612,685.695 187.945,687.362 194.5,683.5C 195.893,685.674 195.56,687.507 193.5,689C 181.616,691.312 176.449,686.479 178,674.5C 179.694,671.642 181.861,669.309 184.5,667.5 Z"/></g>
<g><path style="opacity:0.804" fill="#09538f" d="M 257.5,667.5 C 261.161,667.35 262.161,668.85 260.5,672C 256.707,672.487 255.707,670.987 257.5,667.5 Z"/></g>
<g><path style="opacity:0.796" fill="#065993" d="M 345.5,666.5 C 346.833,666.5 348.167,666.5 349.5,666.5C 349.5,674.167 349.5,681.833 349.5,689.5C 348.167,689.5 346.833,689.5 345.5,689.5C 345.5,681.833 345.5,674.167 345.5,666.5 Z"/></g>
<g><path style="opacity:0.906" fill="#08578f" d="M 307.5,667.5 C 309.288,667.215 310.955,667.548 312.5,668.5C 314,672.167 315.5,675.833 317,679.5C 319.306,676.088 321.14,672.421 322.5,668.5C 324.074,667.369 325.741,667.202 327.5,668C 324.402,675.696 320.902,683.196 317,690.5C 313.821,682.812 310.654,675.145 307.5,667.5 Z"/></g>
<g><path style="opacity:0.867" fill="#085792" d="M 247.5,669.5 C 248.833,669.5 250.167,669.5 251.5,669.5C 251.248,672.244 251.915,674.744 253.5,677C 251.721,680.956 251.054,685.123 251.5,689.5C 250.167,689.5 248.833,689.5 247.5,689.5C 247.946,685.123 247.279,680.956 245.5,677C 247.085,674.744 247.752,672.244 247.5,669.5 Z"/></g>
<g><path style="opacity:0.93" fill="#065791" d="M 199.5,674.5 C 202.731,675.368 206.065,675.368 209.5,674.5C 209.616,677.91 207.95,679.244 204.5,678.5C 203.756,682.119 203.423,685.785 203.5,689.5C 202.167,689.5 200.833,689.5 199.5,689.5C 199.5,684.5 199.5,679.5 199.5,674.5 Z"/></g>
<g><path style="opacity:0.908" fill="#065892" d="M 215.5,674.5 C 221.093,673.451 224.426,675.617 225.5,681C 225.245,682.326 224.578,683.326 223.5,684C 224.308,684.308 224.975,684.808 225.5,685.5C 222.813,689.314 219.147,690.48 214.5,689C 208.965,683.821 209.298,678.987 215.5,674.5 Z M 216.5,678.5 C 218.429,678.231 220.095,678.731 221.5,680C 219.5,680.667 217.5,680.667 215.5,680C 216.056,679.617 216.389,679.117 216.5,678.5 Z M 215.5,683.5 C 217.527,683.338 219.527,683.505 221.5,684C 218.973,687.453 216.973,687.286 215.5,683.5 Z"/></g>
<g><path style="opacity:0.85" fill="#065892" d="M 270.5,674.5 C 273.482,674.104 276.149,674.771 278.5,676.5C 279.439,680.765 279.772,685.098 279.5,689.5C 278.167,689.5 276.833,689.5 275.5,689.5C 275.665,686.15 275.498,682.817 275,679.5C 273.333,678.167 271.667,678.167 270,679.5C 269.502,682.817 269.335,686.15 269.5,689.5C 268.167,689.5 266.833,689.5 265.5,689.5C 265.5,684.833 265.5,680.167 265.5,675.5C 267.415,675.784 269.081,675.451 270.5,674.5 Z"/></g>
<g><path style="opacity:0.912" fill="#065791" d="M 293.5,695.5 C 291.167,695.5 288.833,695.5 286.5,695.5C 284.31,694.626 283.31,692.959 283.5,690.5C 285.936,690.317 288.103,690.984 290,692.5C 290.925,691.953 291.758,691.287 292.5,690.5C 283.308,689.791 280.475,685.124 284,676.5C 285.438,675.282 287.105,674.615 289,674.5C 291.792,675.216 294.626,675.549 297.5,675.5C 297.804,681.577 297.304,687.577 296,693.5C 295.005,694.066 294.172,694.733 293.5,695.5 Z M 288.5,678.5 C 294.285,680.13 294.785,682.797 290,686.5C 286.211,684.331 285.711,681.664 288.5,678.5 Z"/></g>
<g><path style="opacity:0.92" fill="#06588f" d="M 330.5,674.5 C 334.154,674.942 337.821,675.276 341.5,675.5C 341.5,680.167 341.5,684.833 341.5,689.5C 337.644,689.145 333.644,688.978 329.5,689C 325.285,683.72 325.618,678.886 330.5,674.5 Z M 332.5,678.5 C 338.221,680.082 338.721,682.749 334,686.5C 330.211,684.331 329.711,681.664 332.5,678.5 Z"/></g>
<g><path style="opacity:0.901" fill="#085690" d="M 375.5,674.5 C 381.744,673.247 385.411,675.747 386.5,682C 386.095,682.945 385.428,683.612 384.5,684C 385.833,685.333 385.833,686.667 384.5,688C 374.821,691.983 370.654,688.816 372,678.5C 372.69,676.65 373.856,675.316 375.5,674.5 Z M 376.5,678.5 C 378.288,678.215 379.955,678.548 381.5,679.5C 380.667,679.833 379.833,680.167 379,680.5C 377.624,680.316 376.791,679.649 376.5,678.5 Z M 375.5,684.5 C 377.628,683.371 379.961,683.204 382.5,684C 380.304,687.066 377.97,687.233 375.5,684.5 Z"/></g>
<g><path style="opacity:0.866" fill="#085791" d="M 231.5,674.5 C 235.179,674.724 238.846,675.058 242.5,675.5C 242.5,680.167 242.5,684.833 242.5,689.5C 238.644,689.145 234.644,688.978 230.5,689C 226.478,683.903 226.811,679.069 231.5,674.5 Z M 233.5,678.5 C 239.469,679.933 239.969,682.6 235,686.5C 232.318,684.276 231.818,681.61 233.5,678.5 Z"/></g>
<g><path style="opacity:0.967" fill="#055993" d="M 256.5,675.5 C 257.833,675.5 259.167,675.5 260.5,675.5C 260.5,680.167 260.5,684.833 260.5,689.5C 259.167,689.5 257.833,689.5 256.5,689.5C 256.5,684.833 256.5,680.167 256.5,675.5 Z"/></g>
<g><path style="opacity:0.926" fill="#075791" d="M 354.5,675.5 C 355.833,675.5 357.167,675.5 358.5,675.5C 357.89,679.635 358.723,683.301 361,686.5C 363.277,683.301 364.11,679.635 363.5,675.5C 364.833,675.5 366.167,675.5 367.5,675.5C 367.666,679.514 367.499,683.514 367,687.5C 365.352,689.028 363.352,689.695 361,689.5C 358.648,689.695 356.648,689.028 355,687.5C 354.501,683.514 354.334,679.514 354.5,675.5 Z"/></g>
<g><path style="opacity:0.833" fill="#0a538a" d="M 150.5,684.5 C 152.252,684.418 153.252,685.251 153.5,687C 151.833,690.333 150.167,690.333 148.5,687C 149.056,685.989 149.722,685.156 150.5,684.5 Z"/></g>
<g><path style="opacity:0.915" fill="#0b538d" d="M 159.5,684.5 C 163.161,684.35 164.161,685.85 162.5,689C 158.707,689.487 157.707,687.987 159.5,684.5 Z"/></g>
<g><path style="opacity:0.8" fill="#07598e" d="M 169.5,684.5 C 172.764,684.726 173.764,686.226 172.5,689C 168.707,689.487 167.707,687.987 169.5,684.5 Z"/></g>
</svg>
